<?xml version="1.0" encoding="UTF-8" standalone="no"?>
<svg
   xmlns:dc="http://purl.org/dc/elements/1.1/"
   xmlns:cc="http://creativecommons.org/ns#"
   xmlns:rdf="http://www.w3.org/1999/02/22-rdf-syntax-ns#"
   xmlns:svg="http://www.w3.org/2000/svg"
   xmlns="http://www.w3.org/2000/svg"
   xmlns:sodipodi="http://sodipodi.sourceforge.net/DTD/sodipodi-0.dtd"
   xmlns:inkscape="http://www.inkscape.org/namespaces/inkscape"
   inkscape:export-ydpi="300"
   inkscape:export-xdpi="300"
   inkscape:export-filename="/Users/tobi/OK Lab Düsseldorf/codefordus.github.io.hugo/static/img/CFG_logo Kopie.png"
   inkscape:version="1.0beta1 (32d4812, 2019-09-19)"
   sodipodi:docname="CFG_logo Kopie - neu32.svg"
   id="svg199"
   xml:space="preserve"
   enable-background="new 0 0 413.859 100"
   viewBox="0 0 458.859 100"
   height="100"
   width="458.85901"
   y="0px"
   x="0px"
   version="1.1"><metadata
   id="metadata205">
  <rdf:RDF>
    <cc:Work
       rdf:about="">
      <dc:format>image/svg+xml</dc:format>
      <dc:type
         rdf:resource="http://purl.org/dc/dcmitype/StillImage" />
      <dc:title></dc:title>
    </cc:Work>
  </rdf:RDF>
</metadata>
<defs
   id="defs203" />
<sodipodi:namedview
   inkscape:current-layer="svg199"
   inkscape:window-maximized="0"
   inkscape:window-y="23"
   inkscape:window-x="0"
   inkscape:cy="279.00428"
   inkscape:cx="137.86541"
   inkscape:zoom="0.98994949"
   showgrid="false"
   id="namedview201"
   inkscape:window-height="955"
   inkscape:window-width="1600"
   inkscape:pageshadow="2"
   inkscape:pageopacity="0"
   guidetolerance="10"
   gridtolerance="10"
   objecttolerance="10"
   borderopacity="1"
   inkscape:document-rotation="0"
   bordercolor="#666666"
   pagecolor="#ffffff" />

<g
   id="Ebene_2">
</g>

<g
   id="Ebene_1">
	<g
   id="g196">
		
		<g
   id="g194">
			<polygon
   id="polygon164"
   points="64.6,92.207 66.232,92.207 66.232,9.094 55.843,9.094 55.843,10.385 55.843,92.207 62.688,92.207 "
   fill="#FF8282" />

			<g
   id="g168">
				<path
   inkscape:connector-curvature="0"
   id="path166"
   d="m 97.05,100 c 0.712,0 1.65,-0.642 1.65,-1.352 V 1.297 C 98.7,0.585 97.762,0.002 97.05,0.002 H 64.6 c -0.714,0 -0.964,0.29 -0.964,0.648 v 1.945 6.49 c 0,0.715 0.25,1.305 0.964,1.305 h 22.063 c 0.716,0 1.649,0.578 1.649,1.292 v 76.579 c 0,0.715 -0.934,1.349 -1.649,1.349 H 64.6 c -0.714,0 -0.964,0.242 -0.964,0.6 v 1.946 6.492 c 0,0.71 0.25,1.352 0.964,1.352 z"
   fill="#FF645F" />

			</g>

			<polygon
   id="polygon170"
   points="122.079,9.094 111.688,9.094 111.688,10.385 111.688,92.207 120.411,92.207 122.079,92.207 "
   fill="#8CDBA6" />

			<g
   id="g192">
				<path
   inkscape:connector-curvature="0"
   id="path172"
   d="M 120.779,99.942 V 89.559 c 14.286,0 24.256,-17.758 24.256,-39.585 0,-21.828 -9.97,-39.589 -24.256,-39.589 V 0 c 19.481,0 34.64,22.419 34.64,49.974 0,27.552 -15.158,49.968 -34.64,49.968"
   fill="#21D68F" />

				<path
   inkscape:connector-curvature="0"
   id="path174"
   d="m 12.985,68.016 v 14.32 4.605 c 0,7.769 4.973,13.059 12.831,13.059 h 2.208 6.358 7.502 c 0.359,0 0.973,-0.642 0.973,-1.352 v -7.79 c 0,-0.71 -0.906,-1.248 -1.622,-1.248 h -7.457 -3.806 -2.356 c -3.363,0 -4.238,-1.589 -4.238,-5.429 V 78.06 69.566 61.95 c 0,-7.834 -3.187,-10.717 -7.062,-12.135 3.876,-1.417 7.062,-4.297 7.062,-12.125 V 32.28 18.552 15.291 c 0,-3.772 0.753,-4.898 4.238,-4.898 h 2.933 3.721 7.615 c 0.359,0 0.973,-0.592 0.973,-1.307 V 1.298 c 0,-0.713 -0.906,-1.296 -1.622,-1.296 H 34.999 29.11 25.817 c -7.858,0 -12.831,5.088 -12.831,12.688 v 4.076 16.984 c 0,0 -0.256,3.898 -0.444,5.225 -0.491,3.512 -4.795,6.519 -7.458,6.479 H 1.001 C 0.288,45.454 0,46.015 0,46.729 v 7.785 c 0,0.716 0.288,1.331 1.001,1.331 H 4.73 c 3.399,-0.047 7.695,2.817 8.021,7.093 0.097,1.238 0.234,5.078 0.234,5.078"
   fill="#00ABFA" />

				<path
   inkscape:connector-curvature="0"
   id="path176"
   d="m 64.6,0.002 h -3.681 -4.107 c -0.713,0 -0.969,0.583 -0.969,1.297 v 2.397 5.39 1.307 h 0.969 7.788 1.636 V 9.086 1.299 0.002 Z"
   fill="#BD3B38" />

				<path
   inkscape:connector-curvature="0"
   id="path178"
   d="m 55.843,90.858 v 3.68 4.11 c 0,0.71 0.256,1.352 0.969,1.352 h 2.4 5.388 1.633 V 98.648 90.858 89.61 H 64.6 56.812 55.843 Z"
   fill="#BD3B38" />

				<path
   inkscape:connector-curvature="0"
   id="path180"
   d="m 120.411,0.002 h -3.679 -4.109 c -0.712,0 -0.936,0.583 -0.936,1.297 v 2.397 5.39 1.307 h 0.936 7.788 1.668 V 9.086 1.299 0.002 Z"
   fill="#00B05C" />

				<path
   inkscape:connector-curvature="0"
   id="path182"
   d="m 111.688,90.858 v 3.68 4.11 c 0,0.71 0.224,1.352 0.936,1.352 h 2.397 5.391 1.668 v -1.352 -7.79 -1.248 h -1.668 -7.788 -0.936 z"
   fill="#00B05C" />

				<path
   inkscape:connector-curvature="0"
   id="path184"
   d="m 176.623,68.016 v 14.32 4.605 c 0,7.769 4.878,13.059 12.735,13.059 h 2.209 6.36 7.501 c 0.357,0 1.064,-0.642 1.064,-1.352 v -7.79 c 0,-0.71 -1,-1.248 -1.715,-1.248 h -7.458 -3.806 -2.356 c -3.359,0 -4.144,-1.429 -4.144,-5.27 V 82.06 69.565 61.949 c 0,-2.521 -0.74,-4.806 -1.315,-6.104 h -17.429 c 4.786,1.299 6.834,3.015 7.812,7.185 0.486,2.074 0.542,4.986 0.542,4.986"
   fill="#78CCC7" />

				<path
   inkscape:connector-curvature="0"
   id="path186"
   d="m 175.886,38.971 c -1.005,3.401 -3.25,5.187 -7.261,6.483 h 16.354 c 1.016,-2.596 2.035,-4.328 2.035,-7.766 V 32.281 18.552 15.291 c 0,-3.772 0.657,-4.898 4.144,-4.898 h 2.933 3.718 7.62 c 0.357,0 1.064,-0.592 1.064,-1.307 V 1.298 c 0,-0.713 -1,-1.298 -1.715,-1.298 h -6.236 -5.887 -3.297 c -7.857,0 -12.735,5.09 -12.735,12.69 v 4.079 16.98 c 0,10e-4 -0.233,3.526 -0.737,5.222"
   fill="#78CCC7" />

				<path
   inkscape:connector-curvature="0"
   id="path188"
   d="m 178.415,50.73 c 2.628,0.966 5.513,2.518 7.284,5.114 h 19.079 c 0.715,0 1.715,-0.615 1.715,-1.329 v -7.787 c 0,-0.714 -1,-1.274 -1.715,-1.274 h -19.799 c -1.299,2.598 -4.388,4.484 -6.564,5.276"
   fill="#96DBD6" />

				<path
   inkscape:connector-curvature="0"
   id="path190"
   d="m 164.545,45.454 c -0.716,0 -0.909,0.561 -0.909,1.274 v 7.789 c 0,0.712 0.193,1.327 0.909,1.327 h 3.726 17.429 c -1.169,-2.597 -4.077,-4.375 -6.152,-5.185 2.177,-0.797 4.133,-2.607 5.433,-5.206 h -16.354 -4.082 z"
   fill="#40A6A6" />

			</g>

		</g>

	</g>

</g>

<g
   style="font-style:normal;font-weight:normal;font-size:42.6667px;line-height:1.25;font-family:sans-serif;fill:#000000;fill-opacity:1;stroke:none"
   id="text263"
   aria-label="for">
  <path
     id="path269"
     style=""
     d="m 246.6898,15.821699 h -0.20833 q -0.64584,-0.1875 -1.6875,-0.375 -1.04167,-0.208334 -1.83334,-0.208334 -2.52083,0 -3.66667,1.125001 -1.125,1.104167 -1.125,4.020836 v 0.791667 h 7.06251 v 3.29167 h -6.93751 V 44.44672 h -3.91667 V 24.467539 h -2.64583 v -3.29167 h 2.64583 v -0.770833 q 0,-4.145837 2.0625,-6.354172 2.0625,-2.229168 5.95834,-2.229168 1.3125,0 2.35417,0.125 1.0625,0.125 1.9375,0.291667 z" />
  <path
     id="path271"
     style=""
     d="m 269.00232,32.821711 q 0,5.687505 -2.91667,8.979174 -2.91667,3.291669 -7.81251,3.291669 -4.9375,0 -7.85417,-3.291669 -2.89583,-3.291669 -2.89583,-8.979174 0,-5.687504 2.89583,-8.979173 2.91667,-3.312502 7.85417,-3.312502 4.89584,0 7.81251,3.312502 2.91667,3.291669 2.91667,8.979173 z m -4.04167,0 q 0,-4.520836 -1.77084,-6.708338 -1.77083,-2.208335 -4.91667,-2.208335 -3.1875,0 -4.95833,2.208335 -1.75001,2.187502 -1.75001,6.708338 0,4.375004 1.77084,6.645839 1.77083,2.250001 4.9375,2.250001 3.12501,0 4.89584,-2.229168 1.79167,-2.250002 1.79167,-6.666672 z" />
  <path
     id="path273"
     style=""
     d="m 289.6065,25.446706 h -0.20834 q -0.875,-0.208334 -1.70833,-0.291667 -0.8125,-0.104167 -1.9375,-0.104167 -1.8125,0 -3.5,0.812501 -1.68751,0.791667 -3.25001,2.062501 V 44.44672 h -3.91667 V 21.175869 h 3.91667 v 3.437503 q 2.33334,-1.875001 4.10417,-2.645835 1.79167,-0.791668 3.64584,-0.791668 1.02083,0 1.47917,0.0625 0.45833,0.04167 1.375,0.187501 z" />
</g>
<g
   style="font-style:normal;font-weight:normal;font-size:42.6667px;line-height:1.25;font-family:sans-serif;fill:#000000;fill-opacity:1;stroke:none"
   id="text267"
   aria-label="Düsseldorf">
  <path
     id="path276"
     style=""
     d="m 258.6695,74.424386 q 0,4.22917 -1.85417,7.666673 -1.83333,3.437502 -4.89583,5.333337 -2.125,1.312501 -4.75001,1.895835 -2.60417,0.583333 -6.875,0.583333 h -7.83334 V 58.882708 h 7.75 q 4.54167,0 7.20834,0.666667 2.68751,0.645834 4.54167,1.791668 3.16667,1.979168 4.93751,5.270837 1.77083,3.29167 1.77083,7.812506 z m -4.3125,-0.0625 q 0,-3.645836 -1.27084,-6.145838 -1.27083,-2.500002 -3.79166,-3.937503 -1.83334,-1.041667 -3.89584,-1.437501 -2.0625,-0.416667 -4.9375,-0.416667 h -3.87501 v 23.937518 h 3.87501 q 2.97916,0 5.1875,-0.4375 2.22917,-0.437501 4.08334,-1.625001 2.3125,-1.479168 3.45833,-3.895837 1.16667,-2.416668 1.16667,-6.041671 z" />
  <path
     id="path278"
     style=""
     d="m 284.35702,89.903564 h -3.91667 v -2.583335 q -1.97917,1.562501 -3.79167,2.395835 -1.8125,0.833334 -4,0.833334 -3.66667,0 -5.70834,-2.229168 -2.04167,-2.250002 -2.04167,-6.583338 V 66.632714 h 3.91667 v 13.25001 q 0,1.770834 0.16667,3.041669 0.16667,1.250001 0.70833,2.145835 0.5625,0.916667 1.45834,1.333334 0.89583,0.416667 2.60417,0.416667 1.52083,0 3.3125,-0.791667 1.8125,-0.791668 3.375,-2.020835 V 66.632714 h 3.91667 z m -3.25,-27.166686 h -4.14584 v -4.062503 h 4.14584 z m -8.60417,0 h -4.14584 v -4.062503 h 4.14584 z" />
  <path
     id="path280"
     style=""
     d="m 308.69037,83.195226 q 0,3.187502 -2.64583,5.229171 -2.62501,2.041668 -7.18751,2.041668 -2.58333,0 -4.75,-0.604167 -2.14584,-0.625001 -3.60417,-1.354168 v -4.395837 h 0.20833 q 1.85417,1.395835 4.125,2.229169 2.27084,0.8125 4.35417,0.8125 2.58334,0 4.04167,-0.833334 1.45834,-0.833334 1.45834,-2.625002 0,-1.375001 -0.79167,-2.083334 -0.79167,-0.708334 -3.04167,-1.208335 -0.83333,-0.1875 -2.1875,-0.4375 -1.33333,-0.25 -2.4375,-0.541667 -3.0625,-0.812501 -4.35417,-2.375002 -1.27084,-1.583334 -1.27084,-3.875003 0,-1.437501 0.58334,-2.708335 0.60417,-1.270834 1.8125,-2.270835 1.16667,-0.979167 2.95834,-1.541668 1.8125,-0.583334 4.04166,-0.583334 2.08334,0 4.20834,0.520834 2.14584,0.5 3.5625,1.229168 v 4.187503 h -0.20833 q -1.5,-1.104168 -3.64584,-1.854168 -2.14583,-0.770834 -4.20833,-0.770834 -2.14584,0 -3.625,0.833334 -1.47917,0.8125 -1.47917,2.437502 0,1.437501 0.89583,2.166668 0.875,0.729167 2.83334,1.187501 1.08333,0.25 2.41667,0.5 1.35416,0.25 2.25,0.458334 2.72917,0.625 4.20833,2.145835 1.47917,1.541668 1.47917,4.083336 z" />
  <path
     id="path282"
     style=""
     d="m 330.94039,83.195226 q 0,3.187502 -2.64583,5.229171 -2.625,2.041668 -7.18751,2.041668 -2.58333,0 -4.75,-0.604167 -2.14584,-0.625001 -3.60417,-1.354168 v -4.395837 h 0.20833 q 1.85417,1.395835 4.12501,2.229169 2.27083,0.8125 4.35417,0.8125 2.58333,0 4.04167,-0.833334 1.45833,-0.833334 1.45833,-2.625002 0,-1.375001 -0.79167,-2.083334 -0.79166,-0.708334 -3.04167,-1.208335 -0.83333,-0.1875 -2.1875,-0.4375 -1.33333,-0.25 -2.4375,-0.541667 -3.0625,-0.812501 -4.35417,-2.375002 -1.27083,-1.583334 -1.27083,-3.875003 0,-1.437501 0.58333,-2.708335 0.60417,-1.270834 1.8125,-2.270835 1.16667,-0.979167 2.95834,-1.541668 1.8125,-0.583334 4.04167,-0.583334 2.08333,0 4.20833,0.520834 2.14584,0.5 3.56251,1.229168 v 4.187503 h -0.20834 q -1.5,-1.104168 -3.64583,-1.854168 -2.14584,-0.770834 -4.20834,-0.770834 -2.14583,0 -3.625,0.833334 -1.47917,0.8125 -1.47917,2.437502 0,1.437501 0.89583,2.166668 0.875,0.729167 2.83334,1.187501 1.08333,0.25 2.41667,0.5 1.35417,0.25 2.25,0.458334 2.72917,0.625 4.20834,2.145835 1.47916,1.541668 1.47916,4.083336 z" />
  <path
     id="path284"
     style=""
     d="m 356.04458,78.674389 h -17.14585 q 0,2.145835 0.64584,3.750003 0.64583,1.583335 1.77083,2.604169 1.08333,1.000001 2.5625,1.500001 1.5,0.5 3.29167,0.5 2.375,0 4.77084,-0.9375 2.41667,-0.958334 3.4375,-1.875002 h 0.20833 v 4.270837 q -1.97916,0.833334 -4.04167,1.395834 -2.0625,0.562501 -4.33333,0.562501 -5.79167,0 -9.04168,-3.125003 -3.25,-3.145835 -3.25,-8.916673 0,-5.708338 3.10417,-9.062507 3.125,-3.354169 8.20834,-3.354169 4.70834,0 7.25001,2.750002 2.5625,2.750002 2.5625,7.812506 z m -3.8125,-3.000002 q -0.0208,-3.083335 -1.56251,-4.770837 -1.52083,-1.687501 -4.64583,-1.687501 -3.14584,0 -5.02084,1.854168 -1.85417,1.854168 -2.10417,4.60417 z" />
  <path
     id="path286"
     style=""
     d="m 365.94042,89.903564 h -3.91667 v -32.41669 h 3.91667 z" />
  <path
     id="path288"
     style=""
     d="m 392.6071,89.903564 h -3.91667 v -2.437501 q -1.6875,1.458334 -3.52084,2.270835 -1.83333,0.8125 -3.97917,0.8125 -4.16667,0 -6.625,-3.208335 -2.4375,-3.208336 -2.4375,-8.89584 0,-2.958336 0.83333,-5.270838 0.85417,-2.312501 2.29167,-3.937503 1.41667,-1.583334 3.29167,-2.416668 1.89583,-0.833334 3.91667,-0.833334 1.83333,0 3.25,0.395834 1.41667,0.375 2.97917,1.1875 v -10.08334 h 3.91667 z m -3.91667,-5.72917 V 70.820217 q -1.58334,-0.708334 -2.83334,-0.979167 -1.25,-0.270834 -2.72917,-0.270834 -3.29166,0 -5.125,2.291668 -1.83333,2.291669 -1.83333,6.500005 0,4.145837 1.41666,6.312505 1.41667,2.145835 4.54167,2.145835 1.66667,0 3.37501,-0.729167 1.70833,-0.750001 3.1875,-1.916668 z" />
  <path
     id="path290"
     style=""
     d="m 420.14879,78.278556 q 0,5.687504 -2.91667,8.979173 -2.91667,3.291669 -7.8125,3.291669 -4.93751,0 -7.85418,-3.291669 -2.89583,-3.291669 -2.89583,-8.979173 0,-5.687504 2.89583,-8.979174 2.91667,-3.312502 7.85418,-3.312502 4.89583,0 7.8125,3.312502 2.91667,3.29167 2.91667,8.979174 z m -4.04167,0 q 0,-4.520837 -1.77083,-6.708339 -1.77084,-2.208335 -4.91667,-2.208335 -3.18751,0 -4.95834,2.208335 -1.75,2.187502 -1.75,6.708339 0,4.375003 1.77083,6.645838 1.77084,2.250002 4.93751,2.250002 3.125,0 4.89583,-2.229169 1.79167,-2.250001 1.79167,-6.666671 z" />
  <path
     id="path292"
     style=""
     d="m 440.75297,70.90355 h -0.20833 q -0.875,-0.208333 -1.70833,-0.291667 -0.8125,-0.104166 -1.93751,-0.104166 -1.8125,0 -3.5,0.8125 -1.6875,0.791668 -3.25,2.062502 v 16.520845 h -3.91667 v -23.27085 h 3.91667 v 3.437502 q 2.33333,-1.875001 4.10417,-2.645835 1.79167,-0.791667 3.64584,-0.791667 1.02083,0 1.47916,0.0625 0.45834,0.04167 1.375,0.1875 z" />
  <path
     id="path294"
     style=""
     d="m 457.00299,61.278543 h -0.20834 q -0.64583,-0.1875 -1.6875,-0.375 -1.04166,-0.208334 -1.83333,-0.208334 -2.52084,0 -3.66667,1.125001 -1.125,1.104168 -1.125,4.020837 v 0.791667 h 7.0625 v 3.291669 h -6.9375 v 19.979181 h -3.91667 V 69.924383 h -2.64584 v -3.291669 h 2.64584 V 65.86188 q 0,-4.145837 2.0625,-6.354172 2.0625,-2.229168 5.95834,-2.229168 1.3125,0 2.35417,0.125 1.0625,0.125 1.9375,0.291667 z" />
</g>
</svg>
