<?xml version="1.0" encoding="UTF-8" standalone="no"?>
<svg
   xmlns:dc="http://purl.org/dc/elements/1.1/"
   xmlns:cc="http://creativecommons.org/ns#"
   xmlns:rdf="http://www.w3.org/1999/02/22-rdf-syntax-ns#"
   xmlns:svg="http://www.w3.org/2000/svg"
   xmlns="http://www.w3.org/2000/svg"
   xmlns:xlink="http://www.w3.org/1999/xlink"
   xmlns:sodipodi="http://sodipodi.sourceforge.net/DTD/sodipodi-0.dtd"
   xmlns:inkscape="http://www.inkscape.org/namespaces/inkscape"
   version="1.1"
   id="Ebene_1"
   x="0px"
   y="0px"
   viewBox="0 0 198.4 198.4"
   style="enable-background:new 0 0 198.4 198.4;"
   xml:space="preserve"
   sodipodi:docname="dus-logo-2020_rot textpath.svg"
   inkscape:version="1.0beta1 (32d4812, 2019-09-19)"><metadata
   id="metadata2618">
  <rdf:RDF>
    <cc:Work
   rdf:about="">
      <dc:format>image/svg+xml</dc:format>

      <dc:type
   rdf:resource="http://purl.org/dc/dcmitype/StillImage" />

      <dc:title />

    </cc:Work>

  </rdf:RDF>

</metadata>

<defs
   id="defs2616" />

<sodipodi:namedview
   pagecolor="#ffffff"
   bordercolor="#666666"
   inkscape:document-rotation="0"
   borderopacity="1"
   objecttolerance="10"
   gridtolerance="10"
   guidetolerance="10"
   inkscape:pageopacity="0"
   inkscape:pageshadow="2"
   inkscape:window-width="1600"
   inkscape:window-height="955"
   id="namedview2614"
   showgrid="false"
   inkscape:zoom="9.9460577"
   inkscape:cx="96.025576"
   inkscape:cy="144.05766"
   inkscape:window-x="0"
   inkscape:window-y="23"
   inkscape:window-maximized="0"
   inkscape:current-layer="text2603" />


<style
   type="text/css"
   id="style2513">
	.st0{fill:#FFFFFF;}
	.st1{fill:none;stroke:#3DA0DA;stroke-width:5;stroke-miterlimit:10;}
	.st2{fill:#3DA0DA;}
	
		.st3{clip-path:url(#XMLID_3_);fill:none;stroke:#3DA0DA;stroke-width:2;stroke-linecap:square;stroke-linejoin:round;stroke-miterlimit:10;}
	
		.st4{clip-path:url(#XMLID_3_);fill:#FFFFFF;stroke:#3DA0DA;stroke-width:2;stroke-linecap:round;stroke-linejoin:round;stroke-miterlimit:10;}
	.st5{fill:#FFFFFF;stroke:#3DA0DA;stroke-miterlimit:10;}
	.st6{fill:none;}
	.st7{fill:#3EA0D9;}
	.st8{font-family:'Montserrat-Bold';}
	.st9{font-size:10px;}
</style>


<polygon
   class="st0"
   points="163.5,132.1 101,168.1 38.5,132.1 38.5,60.1 101,24.1 163.5,60.1 "
   id="polygon2515" />


<polygon
   class="st1"
   points="161,131.1 100.5,166.1 40,131.1 40,61 100.5,26 161,61 "
   id="polygon2517"
   style="stroke:#cd1316;stroke-opacity:1" />


<g
   id="g2559"
   style="fill:#cd1316;fill-opacity:1;stroke:none;stroke-opacity:1">
	<g
   id="g2525"
   style="fill:#cd1316;fill-opacity:1;stroke:none;stroke-opacity:1">
		<path
   class="st2"
   d="M98.7,55.6c-0.2-0.1-0.3-0.2-0.5-0.2c-0.3,0-0.4,0.2-0.4,0.6v0.2h1.2v0.5h-1.2v2.6h-0.5v-2.6h-0.9v-0.5h0.9    V56c0-0.7,0.4-1,0.9-1c0.3,0,0.5,0.1,0.6,0.2L98.7,55.6z"
   id="path2519"
   style="fill:#cd1316;fill-opacity:1;stroke:none;stroke-opacity:1" />


		<path
   class="st2"
   d="M101.1,56.2c0.9,0,1.5,0.7,1.5,1.6s-0.6,1.6-1.5,1.6c-0.9,0-1.5-0.7-1.5-1.6S100.2,56.2,101.1,56.2z     M101.1,58.8c0.6,0,1-0.5,1-1.1c0-0.6-0.4-1.1-1-1.1c-0.6,0-1,0.5-1,1.1C100.1,58.3,100.5,58.8,101.1,58.8z"
   id="path2521"
   style="fill:#cd1316;fill-opacity:1;stroke:none;stroke-opacity:1" />


		<path
   class="st2"
   d="M105.5,57.2c0-0.3-0.2-0.6-0.6-0.6c-0.5,0-1,0.5-1,1.5v1.1h-0.5v-3h0.5v0.6c0.2-0.4,0.6-0.6,1.1-0.6    c0.6,0,1,0.4,1,1H105.5z"
   id="path2523"
   style="fill:#cd1316;fill-opacity:1;stroke:none;stroke-opacity:1" />


	</g>


	<g
   id="g2557"
   style="fill:#cd1316;fill-opacity:1;stroke:none;stroke-opacity:1">
		<polygon
   class="st2"
   points="97.2,46 97.2,46.1 97.2,52.5 97.7,52.5 97.8,52.5 98,52.5 98,46   "
   id="polygon2527"
   style="fill:#cd1316;fill-opacity:1;stroke:none;stroke-opacity:1" />


		<g
   id="g2531"
   style="fill:#cd1316;fill-opacity:1;stroke:none;stroke-opacity:1">
			<path
   class="st2"
   d="M100.4,53.1c0.1,0,0.1-0.1,0.1-0.1v-7.6c0-0.1-0.1-0.1-0.1-0.1h-2.5c-0.1,0-0.1,0-0.1,0.1v0.2V46     c0,0.1,0,0.1,0.1,0.1h1.7c0.1,0,0.1,0,0.1,0.1v6c0,0.1-0.1,0.1-0.1,0.1h-1.7c-0.1,0-0.1,0-0.1,0v0.2V53c0,0.1,0,0.1,0.1,0.1     H100.4z"
   id="path2529"
   style="fill:#cd1316;fill-opacity:1;stroke:none;stroke-opacity:1" />


		</g>


		<polygon
   class="st2"
   points="101.5,46 101.5,46.1 101.5,52.5 102.2,52.5 102.3,52.5 102.3,46   "
   id="polygon2533"
   style="fill:#cd1316;fill-opacity:1;stroke:none;stroke-opacity:1" />


		<g
   id="g2555"
   style="fill:#cd1316;fill-opacity:1;stroke:none;stroke-opacity:1">
			<path
   class="st2"
   d="M102.2,53.1v-0.8c1.1,0,1.9-1.4,1.9-3.1c0-1.7-0.8-3.1-1.9-3.1v-0.8c1.5,0,2.7,1.7,2.7,3.9     S103.7,53.1,102.2,53.1"
   id="path2535"
   style="fill:#cd1316;fill-opacity:1;stroke:none;stroke-opacity:1" />


			<path
   class="st2"
   d="M93.8,50.6v1.1v0.4c0,0.6,0.4,1,1,1H95h0.5h0.6c0,0,0.1-0.1,0.1-0.1v-0.6c0-0.1-0.1-0.1-0.1-0.1h-0.6h-0.3     H95c-0.3,0-0.3-0.1-0.3-0.4v-0.2v-1v-0.6c0-0.6-0.2-0.8-0.6-0.9c0.3-0.1,0.6-0.3,0.6-0.9v-0.4v-1.1v-0.3c0-0.3,0.1-0.4,0.3-0.4     h0.2h0.3h0.6c0,0,0.1,0,0.1-0.1v-0.6c0-0.1-0.1-0.1-0.1-0.1h-0.5h-0.5h-0.3c-0.6,0-1,0.4-1,1v0.3V48c0,0,0,0.3,0,0.4     c0,0.3-0.4,0.5-0.6,0.5h-0.3c-0.1,0-0.1,0-0.1,0.1v0.6c0,0.1,0,0.1,0.1,0.1h0.3c0.3,0,0.6,0.2,0.6,0.6     C93.8,50.3,93.8,50.6,93.8,50.6"
   id="path2537"
   style="fill:#cd1316;fill-opacity:1;stroke:none;stroke-opacity:1" />


			<path
   class="st2"
   d="M97.8,45.3h-0.3h-0.3c-0.1,0-0.1,0-0.1,0.1v0.2V46v0.1h0.1h0.6H98V46v-0.6v-0.1H97.8z"
   id="path2539"
   style="fill:#cd1316;fill-opacity:1;stroke:none;stroke-opacity:1" />


			<path
   class="st2"
   d="M97.2,52.4v0.3V53c0,0.1,0,0.1,0.1,0.1h0.2h0.4H98V53v-0.6v-0.1h-0.1L97.2,52.4L97.2,52.4L97.2,52.4z"
   id="path2541"
   style="fill:#cd1316;fill-opacity:1;stroke:none;stroke-opacity:1" />


			<path
   class="st2"
   d="M102.2,45.3h-0.3h-0.3c-0.1,0-0.1,0-0.1,0.1v0.2V46v0.1h0.1h0.6h0.1V46v-0.6v-0.1H102.2z"
   id="path2543"
   style="fill:#cd1316;fill-opacity:1;stroke:none;stroke-opacity:1" />


			<path
   class="st2"
   d="M101.5,52.4v0.3V53c0,0.1,0,0.1,0.1,0.1h0.2h0.4h0.1V53v-0.6v-0.1h-0.1L101.5,52.4L101.5,52.4L101.5,52.4z"
   id="path2545"
   style="fill:#cd1316;fill-opacity:1;stroke:none;stroke-opacity:1" />


			<path
   class="st2"
   d="M106.6,50.6v1.1v0.4c0,0.6,0.4,1,1,1h0.2h0.5h0.6c0,0,0.1-0.1,0.1-0.1v-0.6c0-0.1-0.1-0.1-0.1-0.1h-0.6h-0.3     h-0.2c-0.3,0-0.3-0.1-0.3-0.4v-0.2v-1v-0.6c0-0.2-0.1-0.4-0.1-0.5h-1.4c0.4,0.1,0.5,0.2,0.6,0.6     C106.6,50.4,106.6,50.6,106.6,50.6"
   id="path2547"
   style="fill:#cd1316;fill-opacity:1;stroke:none;stroke-opacity:1" />


			<path
   class="st2"
   d="M106.5,48.4c-0.1,0.3-0.3,0.4-0.6,0.5h1.3c0.1-0.2,0.2-0.3,0.2-0.6v-0.4v-1.1v-0.3c0-0.3,0.1-0.4,0.3-0.4     h0.2h0.3h0.6c0,0,0.1,0,0.1-0.1v-0.6c0-0.1-0.1-0.1-0.1-0.1h-0.5h-0.5h-0.3c-0.6,0-1,0.4-1,1v0.3V48     C106.6,48,106.6,48.2,106.5,48.4"
   id="path2549"
   style="fill:#cd1316;fill-opacity:1;stroke:none;stroke-opacity:1" />


			<path
   class="st2"
   d="M106.7,49.3c0.2,0.1,0.4,0.2,0.6,0.4h1.5c0.1,0,0.1,0,0.1-0.1V49c0-0.1-0.1-0.1-0.1-0.1h-1.5     C107.1,49.1,106.9,49.2,106.7,49.3"
   id="path2551"
   style="fill:#cd1316;fill-opacity:1;stroke:none;stroke-opacity:1" />


			<path
   class="st2"
   d="M105.6,48.9C105.6,48.9,105.6,48.9,105.6,48.9l-0.1,0.7c0,0.1,0,0.1,0.1,0.1h0.3h1.4     c-0.1-0.2-0.3-0.3-0.5-0.4c0.2-0.1,0.3-0.2,0.4-0.4H106H105.6z"
   id="path2553"
   style="fill:#cd1316;fill-opacity:1;stroke:none;stroke-opacity:1" />


		</g>


	</g>


</g>


<g
   id="g2583"
   style="fill:none;fill-opacity:1;stroke:#cd1316;stroke-opacity:1">
	<defs
   id="defs2562">
		<polygon
   id="XMLID_2_"
   points="155,126.9 101,158.1 47,126.9 47,64.4 101,33.2 155,64.4   " />


	</defs>


	<clipPath
   id="XMLID_3_">
		<use
   xlink:href="#XMLID_2_"
   style="overflow:visible;"
   id="use2564" />


	</clipPath>


	<path
   class="st3"
   d="m 98,136.7 c -3.6,0 -4.1,4.1 -8.7,4.1 -5.1,0 -4,-4.1 -8.7,-4.1 -4.5,0 -4.8,4.1 -8.7,4.1 -4.6,0 -4.6,-4.1 -8.7,-4.1 -5,0 -4.8,4.1 -8.7,4.1 -4.2,0 -4,-4.1 -8.7,-4.1"
   clip-path="url(#XMLID_3_)"
   id="path2567"
   style="fill:none;fill-opacity:1;stroke:#cd1316;stroke-opacity:1"
   inkscape:connector-curvature="0"
   transform="matrix(0.97923996,0,0,0.98724227,0.92574155,1.7962944)" />


	<path
   class="st3"
   d="M158,136.7c-3.6,0-4.1,4.1-8.7,4.1c-5.1,0-4-4.1-8.7-4.1c-4.5,0-4.8,4.1-8.7,4.1c-4.6,0-4.6-4.1-8.7-4.1   c-5,0-4.8,4.1-8.7,4.1c-4.2,0-4-4.1-8.7-4.1"
   clip-path="url(#XMLID_3_)"
   id="path2569"
   style="fill:none;fill-opacity:1;stroke:#cd1316;stroke-opacity:1" />


	<path
   class="st3"
   d="m 98,143.1 c -3.6,0 -4.1,4.1 -8.7,4.1 -5.1,0 -4,-4.1 -8.7,-4.1 -4.5,0 -4.8,4.1 -8.7,4.1 -4.6,0 -4.6,-4.1 -8.7,-4.1 -5,0 -4.8,4.1 -8.7,4.1 -4.2,0 -4,-4.1 -8.7,-4.1"
   clip-path="url(#XMLID_3_)"
   id="path2571"
   style="fill:none;fill-opacity:1;stroke:#cd1316;stroke-opacity:1"
   inkscape:connector-curvature="0"
   transform="matrix(0.97878583,0,0,0.97975202,0.971609,2.980503)" />


	<path
   class="st3"
   d="M158,143.1c-3.6,0-4.1,4.1-8.7,4.1c-5.1,0-4-4.1-8.7-4.1c-4.5,0-4.8,4.1-8.7,4.1c-4.6,0-4.6-4.1-8.7-4.1   c-5,0-4.8,4.1-8.7,4.1c-4.2,0-4-4.1-8.7-4.1"
   clip-path="url(#XMLID_3_)"
   id="path2573"
   style="fill:none;fill-opacity:1;stroke:#cd1316;stroke-opacity:1" />


	<path
   class="st3"
   d="m 98,149.5 c -3.6,0 -4.1,4.1 -8.7,4.1 -5.1,0 -4,-4.1 -8.7,-4.1 -4.5,0 -4.8,4.1 -8.7,4.1 -4.6,0 -4.6,-4.1 -8.7,-4.1 -5,0 -4.8,4.1 -8.7,4.1 -4.2,0 -4,-4.1 -8.7,-4.1"
   clip-path="url(#XMLID_3_)"
   id="path2575"
   style="fill:none;fill-opacity:1;stroke:#cd1316;stroke-opacity:1"
   inkscape:connector-curvature="0"
   transform="matrix(0.9783144,0,0,0.95095495,1.0192234,7.5333194)" />


	<path
   class="st3"
   d="M158,149.5c-3.6,0-4.1,4.1-8.7,4.1c-5.1,0-4-4.1-8.7-4.1c-4.5,0-4.8,4.1-8.7,4.1c-4.6,0-4.6-4.1-8.7-4.1   c-5,0-4.8,4.1-8.7,4.1c-4.2,0-4-4.1-8.7-4.1"
   clip-path="url(#XMLID_3_)"
   id="path2577"
   style="fill:none;fill-opacity:1;stroke:#cd1316;stroke-opacity:1" />


	<path
   class="st4"
   d="M113,98c0-1.1-4.4-2.1-10.2-2.3l0-1.3c5.3-0.2,9.4-1,9.4-2.1c0-1.1-4.1-1.9-9.5-2.1l0-1.2   c4.5-0.1,7.9-0.9,7.9-1.8c0-0.9-3.5-1.6-8-1.8l-1-22.8h-1.3l-0.8,22.9c-4.5,0.1-7.9,0.9-7.9,1.8c0,0.9,3.4,1.6,7.8,1.8l0,1.2   c-5.4,0.2-9.5,1-9.5,2.1c0,1.1,4,1.9,9.3,2.1l0,1.3C93.4,95.9,89,96.9,89,98c0,0.2,0.1,0.3,0.3,0.5l9.3,14.4l-2.1,52.2h9.1l-2-52.4   l9.2-14.2C112.9,98.4,113,98.2,113,98L113,98z"
   clip-path="url(#XMLID_3_)"
   id="path2579"
   style="fill:none;fill-opacity:1;stroke:#cd1316;stroke-opacity:1" />


	<use
   xlink:href="#XMLID_2_"
   style="overflow:visible;fill:none;stroke:#cd1316;stroke-miterlimit:10;fill-opacity:1;stroke-opacity:1"
   id="use2581" />


</g>


<g
   id="g2589"
   style="stroke:#cd1316;stroke-opacity:1">
	<polyline
   class="st5"
   points="68.8,117.7 73.2,112.7 57.4,112.7 62.1,118.8 57.6,124.7 69.2,124.7  "
   id="polyline2585"
   style="stroke:#cd1316;stroke-opacity:1" />


	<line
   class="st5"
   x1="73.7"
   y1="112.2"
   x2="73.7"
   y2="117.2"
   id="line2587"
   style="stroke:#cd1316;stroke-opacity:1" />


</g>


<g
   id="g2595"
   style="stroke:#cd1316;stroke-opacity:1">
	<polyline
   class="st5"
   points="132.2,117.7 127.9,112.7 143.6,112.7 138.9,118.8 143.4,124.7 131.9,124.7  "
   id="polyline2591"
   style="stroke:#cd1316;stroke-opacity:1" />


	<line
   class="st5"
   x1="127.4"
   y1="112.2"
   x2="127.4"
   y2="117.2"
   id="line2593"
   style="stroke:#cd1316;stroke-opacity:1" />


</g>


<g
   id="g2599"
   style="stroke:#cd1316;stroke-opacity:1">
	<rect
   x="69"
   y="117.5"
   class="st5"
   width="63"
   height="15"
   id="rect2597"
   style="stroke:#cd1316;stroke-opacity:1" />


</g>


<rect
   x="69.5"
   y="120.2"
   class="st6"
   width="62.4"
   height="11"
   id="rect2601" />


<g
   class="st7 st8 st9"
   style="font-size:10px;font-family:Montserrat-Bold;fill:#cd1316;fill-opacity:1;stroke:none;stroke-opacity:1"
   id="text2603"
   transform="matrix(1 0 0 1 73.2738 128.6618)"
   aria-label="Düsseldorf">
  <path
     id="path226"
     style="font-size:10px;font-family:Montserrat-Bold;fill:#cd1316;fill-opacity:1;stroke:none;stroke-opacity:1"
     d="m 7.1191406,-3.6279297 q 0,0.9912109 -0.4345703,1.796875 Q 6.2548828,-1.0253906 5.5371094,-0.58105469 5.0390625,-0.2734375 4.4238281,-0.13671875 3.8134766,0 2.8125,0 H 0.9765625 v -7.2705078 h 1.8164063 q 1.0644531,0 1.6894531,0.15625 0.6298828,0.1513672 1.0644531,0.4199219 0.7421875,0.4638672 1.1572266,1.2353515 0.415039,0.7714844 0.415039,1.8310547 z m -1.0107422,-0.014648 q 0,-0.8544922 -0.2978515,-1.4404297 Q 5.5126953,-5.6689453 4.921875,-6.0058594 4.4921875,-6.25 4.0087891,-6.3427734 3.5253906,-6.4404297 2.8515625,-6.4404297 H 1.9433594 v 5.61035157 h 0.9082031 q 0.6982422,0 1.2158203,-0.10253906 0.5224609,-0.10253901 0.9570313,-0.38085941 0.5419921,-0.3466796 0.8105468,-0.9130859 0.2734375,-0.5664063 0.2734375,-1.4160156 z" />
  <path
     id="path228"
     style="font-size:10px;font-family:Montserrat-Bold;fill:#cd1316;fill-opacity:1;stroke:none;stroke-opacity:1"
     d="M 13.139648,0 H 12.22168 v -0.60546875 q -0.463867,0.36621094 -0.888672,0.56152344 -0.424805,0.1953125 -0.9375,0.1953125 -0.8593752,0 -1.3378908,-0.52246094 Q 8.5791016,-0.8984375 8.5791016,-1.9140625 v -3.5400391 h 0.9179687 v 3.1054688 q 0,0.4150391 0.039063,0.7128906 0.039063,0.2929688 0.1660156,0.5029297 0.131836,0.21484375 0.3417966,0.3125 0.209961,0.0976563 0.610352,0.0976563 0.356445,0 0.776367,-0.18554688 Q 11.855469,-1.09375 12.22168,-1.3818359 v -4.0722657 h 0.917968 z M 12.37793,-6.3671875 h -0.97168 v -0.9521484 h 0.97168 z m -2.016602,0 H 9.3896484 v -0.9521484 h 0.9716796 z" />
  <path
     id="path230"
     style="font-size:10px;font-family:Montserrat-Bold;fill:#cd1316;fill-opacity:1;stroke:none;stroke-opacity:1"
     d="m 18.842773,-1.5722656 q 0,0.74707029 -0.620117,1.22558591 -0.615234,0.47851563 -1.68457,0.47851563 -0.605469,0 -1.113281,-0.14160157 Q 14.921875,-0.15625 14.580078,-0.32714844 V -1.3574219 h 0.04883 q 0.434571,0.3271485 0.966797,0.52246096 0.532227,0.19042969 1.020508,0.19042969 0.605469,0 0.947266,-0.1953125 0.341796,-0.19531245 0.341796,-0.61523435 0,-0.3222656 -0.185546,-0.4882813 -0.185547,-0.1660156 -0.712891,-0.2832031 -0.195313,-0.043945 -0.512695,-0.1025391 -0.3125,-0.058594 -0.571289,-0.1269531 -0.717774,-0.1904297 -1.020508,-0.5566406 -0.297852,-0.3710938 -0.297852,-0.9082031 0,-0.3369141 0.136719,-0.6347657 0.141602,-0.2978515 0.424805,-0.5322265 0.273437,-0.2294922 0.693359,-0.3613281 0.424805,-0.1367188 0.947266,-0.1367188 0.488281,0 0.986328,0.1220703 0.502929,0.1171875 0.834961,0.288086 v 0.9814453 h -0.04883 q -0.351563,-0.2587891 -0.854493,-0.4345703 -0.502929,-0.1806641 -0.986328,-0.1806641 -0.502929,0 -0.849609,0.1953125 -0.34668,0.1904297 -0.34668,0.5712891 0,0.336914 0.209961,0.5078124 0.205078,0.1708985 0.664063,0.2783204 0.253906,0.058594 0.566406,0.1171875 0.317383,0.058594 0.527344,0.1074218 0.639648,0.1464844 0.986328,0.5029297 0.346679,0.3613281 0.346679,0.9570313 z" />
  <path
     id="path232"
     style="font-size:10px;font-family:Montserrat-Bold;fill:#cd1316;fill-opacity:1;stroke:none;stroke-opacity:1"
     d="m 24.057617,-1.5722656 q 0,0.74707029 -0.620117,1.22558591 -0.615234,0.47851563 -1.68457,0.47851563 -0.605469,0 -1.113282,-0.14160157 Q 20.136719,-0.15625 19.794922,-0.32714844 V -1.3574219 h 0.04883 q 0.43457,0.3271485 0.966797,0.52246096 0.532226,0.19042969 1.020508,0.19042969 0.605468,0 0.947265,-0.1953125 0.341797,-0.19531245 0.341797,-0.61523435 0,-0.3222656 -0.185547,-0.4882813 -0.185547,-0.1660156 -0.71289,-0.2832031 -0.195313,-0.043945 -0.512696,-0.1025391 -0.3125,-0.058594 -0.571289,-0.1269531 -0.717773,-0.1904297 -1.020508,-0.5566406 -0.297851,-0.3710938 -0.297851,-0.9082031 0,-0.3369141 0.136719,-0.6347657 0.141601,-0.2978515 0.424804,-0.5322265 0.273438,-0.2294922 0.69336,-0.3613281 0.424804,-0.1367188 0.947265,-0.1367188 0.488282,0 0.986328,0.1220703 0.50293,0.1171875 0.834961,0.288086 v 0.9814453 h -0.04883 q -0.351562,-0.2587891 -0.854492,-0.4345703 -0.50293,-0.1806641 -0.986328,-0.1806641 -0.50293,0 -0.849609,0.1953125 -0.34668,0.1904297 -0.34668,0.5712891 0,0.336914 0.209961,0.5078124 0.205078,0.1708985 0.664062,0.2783204 0.253907,0.058594 0.566407,0.1171875 0.317382,0.058594 0.527343,0.1074218 0.639649,0.1464844 0.986328,0.5029297 0.34668,0.3613281 0.34668,0.9570313 z" />
  <path
     id="path234"
     style="font-size:10px;font-family:Montserrat-Bold;fill:#cd1316;fill-opacity:1;stroke:none;stroke-opacity:1"
     d="m 29.941406,-2.6318359 h -4.018554 q 0,0.5029296 0.151367,0.8789062 0.151367,0.3710938 0.415039,0.6103516 0.253906,0.23437497 0.600586,0.35156248 0.351562,0.1171875 0.771484,0.1171875 0.556641,0 1.118164,-0.21972657 0.566406,-0.22460941 0.805664,-0.43945311 h 0.04883 v 1.00097655 q -0.463867,0.1953125 -0.947265,0.32714844 -0.483399,0.13183593 -1.015625,0.13183593 -1.357422,0 -2.119141,-0.73242187 -0.761719,-0.73730465 -0.761719,-2.08984375 0,-1.3378906 0.727539,-2.1240234 0.732422,-0.7861328 1.923829,-0.7861328 1.103515,0 1.699218,0.6445312 0.600586,0.6445313 0.600586,1.8310547 z m -0.893554,-0.703125 q -0.0049,-0.7226563 -0.366211,-1.1181641 -0.356446,-0.3955078 -1.088868,-0.3955078 -0.737304,0 -1.176757,0.4345703 -0.434571,0.4345703 -0.493164,1.0791016 z" />
  <path
     id="path236"
     style="font-size:10px;font-family:Montserrat-Bold;fill:#cd1316;fill-opacity:1;stroke:none;stroke-opacity:1"
     d="m 32.260742,0 h -0.917969 v -7.5976562 h 0.917969 z" />
  <path
     id="path238"
     style="font-size:10px;font-family:Montserrat-Bold;fill:#cd1316;fill-opacity:1;stroke:none;stroke-opacity:1"
     d="m 38.510742,0 h -0.917969 v -0.57128906 q -0.395507,0.34179687 -0.825195,0.53222656 -0.429687,0.19042969 -0.932617,0.19042969 -0.976563,0 -1.552734,-0.75195313 -0.57129,-0.75195316 -0.57129,-2.08496096 0,-0.6933594 0.195313,-1.2353515 0.200195,-0.5419922 0.537109,-0.9228516 0.332032,-0.3710937 0.771485,-0.5664062 0.444336,-0.1953125 0.917968,-0.1953125 0.429688,0 0.761719,0.092773 0.332031,0.087891 0.698242,0.2783203 v -2.3632812 h 0.917969 z m -0.917969,-1.3427734 v -3.1298828 q -0.371093,-0.1660157 -0.664062,-0.2294922 -0.292969,-0.063477 -0.639649,-0.063477 -0.771484,0 -1.201171,0.5371094 -0.429688,0.5371093 -0.429688,1.5234375 0,0.9716797 0.332031,1.4794922 0.332032,0.50292965 1.064453,0.50292965 0.390625,0 0.791016,-0.17089844 0.400391,-0.17578121 0.74707,-0.44921871 z" />
  <path
     id="path240"
     style="font-size:10px;font-family:Montserrat-Bold;fill:#cd1316;fill-opacity:1;stroke:none;stroke-opacity:1"
     d="m 44.96582,-2.7246094 q 0,1.3330078 -0.683593,2.10449221 -0.683594,0.77148438 -1.831055,0.77148438 -1.157227,0 -1.84082,-0.77148438 -0.678711,-0.77148441 -0.678711,-2.10449221 0,-1.3330078 0.678711,-2.1044922 0.683593,-0.7763671 1.84082,-0.7763671 1.147461,0 1.831055,0.7763671 0.683593,0.7714844 0.683593,2.1044922 z m -0.947265,0 q 0,-1.0595703 -0.415039,-1.5722656 -0.415039,-0.5175781 -1.152344,-0.5175781 -0.74707,0 -1.16211,0.5175781 -0.410156,0.5126953 -0.410156,1.5722656 0,1.0253907 0.415039,1.5576172 0.415039,0.52734376 1.157227,0.52734376 0.732422,0 1.147461,-0.52246096 0.419922,-0.5273437 0.419922,-1.5625 z" />
  <path
     id="path242"
     style="font-size:10px;font-family:Montserrat-Bold;fill:#cd1316;fill-opacity:1;stroke:none;stroke-opacity:1"
     d="m 49.794922,-4.453125 h -0.04883 q -0.205078,-0.048828 -0.400391,-0.068359 -0.19043,-0.024414 -0.454101,-0.024414 -0.424805,0 -0.820313,0.1904297 -0.395508,0.1855468 -0.761719,0.4833984 V 0 h -0.917968 v -5.4541016 h 0.917968 v 0.8056641 q 0.546875,-0.4394531 0.961914,-0.6201172 0.419922,-0.1855469 0.854493,-0.1855469 0.239257,0 0.346679,0.014649 0.107422,0.00977 0.322266,0.043945 z" />
  <path
     id="path244"
     style="font-size:10px;font-family:Montserrat-Bold;fill:#cd1316;fill-opacity:1;stroke:none;stroke-opacity:1"
     d="m 53.603516,-6.7089844 h -0.04883 q -0.151367,-0.043945 -0.395507,-0.087891 -0.244141,-0.048828 -0.429688,-0.048828 -0.59082,0 -0.859375,0.2636719 -0.263672,0.258789 -0.263672,0.9423828 v 0.1855468 h 1.655274 v 0.7714844 H 51.635742 V 0 h -0.917969 v -4.6826172 h -0.620117 v -0.7714844 h 0.620117 v -0.180664 q 0,-0.9716797 0.483399,-1.4892578 0.483398,-0.522461 1.396484,-0.522461 0.307617,0 0.551758,0.029297 0.249023,0.029297 0.454102,0.068359 z" />
</g>


<g
   id="g2607"
   style="stroke:none;stroke-opacity:1;fill:#cd1316;fill-opacity:1">
	<path
   class="st7"
   d="M72.8,108.8c-1.4-0.5-2.5-1-3.4-1.8s-1.7-1.6-2.2-2.5s-0.9-2-1.2-3.1s-0.4-2.3-0.4-3.5v-4.8   c0-0.8-0.1-1.6-0.2-2.3s-0.4-1.3-0.7-1.8s-0.7-0.9-1.3-1.1s-1.1-0.4-1.8-0.4v-3.4c1.4,0,2.4-0.5,3.1-1.5s0.9-2.4,0.9-4.1v-4.9   c0-1.2,0.1-2.4,0.4-3.5s0.6-2.1,1.2-3.1s1.3-1.8,2.2-2.5s2.1-1.3,3.4-1.8l0.8,2.7c-0.8,0.3-1.4,0.7-1.9,1.2s-0.9,1.2-1.2,1.9   S70.1,70.1,70,71s-0.2,1.8-0.2,2.7v4.9c0,1.6-0.3,3-0.8,4.3s-1.4,2.3-2.6,3c1.2,0.7,2.1,1.7,2.6,3s0.8,2.7,0.8,4.3v4.8   c0,1,0.1,1.9,0.2,2.7c0.1,0.9,0.3,1.6,0.6,2.4s0.7,1.3,1.2,1.9s1.1,0.9,1.9,1.2L72.8,108.8z"
   id="path2605"
   style="stroke:none;stroke-opacity:1;fill:#cd1316;fill-opacity:1" />


</g>


<g
   id="g2611"
   style="fill:#cd1316;fill-opacity:1">
	<path
   class="st7"
   d="M127.4,106.1c0.8-0.3,1.4-0.7,1.9-1.2s0.9-1.2,1.2-1.9s0.5-1.5,0.6-2.4c0.1-0.9,0.2-1.8,0.2-2.7v-4.8   c0-1.6,0.3-3.1,0.9-4.3s1.5-2.2,2.8-2.9c-1.3-0.7-2.2-1.6-2.8-2.9s-0.9-2.7-0.9-4.3v-4.9c0-1-0.1-1.9-0.2-2.7s-0.3-1.7-0.6-2.4   s-0.7-1.3-1.2-1.9s-1.1-0.9-1.9-1.2l0.8-2.7c1.4,0.5,2.5,1,3.4,1.8s1.6,1.6,2.2,2.5s0.9,2,1.2,3.1s0.4,2.3,0.4,3.5v4.9   c0,0.8,0.1,1.6,0.2,2.3s0.4,1.3,0.7,1.8s0.7,0.9,1.3,1.1s1.1,0.4,1.8,0.4v3.4c-0.7,0-1.3,0.1-1.8,0.4s-0.9,0.6-1.3,1.1   s-0.6,1.1-0.7,1.8s-0.2,1.5-0.2,2.3v4.8c0,1.2-0.1,2.4-0.4,3.5s-0.6,2.2-1.2,3.1s-1.3,1.8-2.2,2.5s-2.1,1.3-3.4,1.8L127.4,106.1z"
   id="path2609"
   style="fill:#cd1316;fill-opacity:1" />


</g>


</svg>
