<?xml version="1.0" encoding="UTF-8" standalone="no"?>
<svg
   xmlns:dc="http://purl.org/dc/elements/1.1/"
   xmlns:cc="http://creativecommons.org/ns#"
   xmlns:rdf="http://www.w3.org/1999/02/22-rdf-syntax-ns#"
   xmlns:svg="http://www.w3.org/2000/svg"
   xmlns="http://www.w3.org/2000/svg"
   xmlns:xlink="http://www.w3.org/1999/xlink"
   xmlns:sodipodi="http://sodipodi.sourceforge.net/DTD/sodipodi-0.dtd"
   xmlns:inkscape="http://www.inkscape.org/namespaces/inkscape"
   inkscape:version="1.0beta1 (32d4812, 2019-09-19)"
   sodipodi:docname="dus-logo-2020_rot.svg"
   xml:space="preserve"
   style="enable-background:new 0 0 198.4 198.4;"
   viewBox="0 0 198.4 198.4"
   y="0px"
   x="0px"
   id="Ebene_1"
   version="1.1"><metadata
   id="metadata2618">
  <rdf:RDF>
    <cc:Work
       rdf:about="">
      <dc:format>image/svg+xml</dc:format>
      <dc:type
         rdf:resource="http://purl.org/dc/dcmitype/StillImage" />
      <dc:title></dc:title>
    </cc:Work>
  </rdf:RDF>
</metadata>
<defs
   id="defs2616" />
<sodipodi:namedview
   inkscape:current-layer="g2583"
   inkscape:window-maximized="0"
   inkscape:window-y="23"
   inkscape:window-x="0"
   inkscape:cy="144.05766"
   inkscape:cx="96.025576"
   inkscape:zoom="9.9460577"
   showgrid="false"
   id="namedview2614"
   inkscape:window-height="955"
   inkscape:window-width="1600"
   inkscape:pageshadow="2"
   inkscape:pageopacity="0"
   guidetolerance="10"
   gridtolerance="10"
   objecttolerance="10"
   borderopacity="1"
   inkscape:document-rotation="0"
   bordercolor="#666666"
   pagecolor="#ffffff" />

<style
   id="style2513"
   type="text/css">
	.st0{fill:#FFFFFF;}
	.st1{fill:none;stroke:#3DA0DA;stroke-width:5;stroke-miterlimit:10;}
	.st2{fill:#3DA0DA;}
	
		.st3{clip-path:url(#XMLID_3_);fill:none;stroke:#3DA0DA;stroke-width:2;stroke-linecap:square;stroke-linejoin:round;stroke-miterlimit:10;}
	
		.st4{clip-path:url(#XMLID_3_);fill:#FFFFFF;stroke:#3DA0DA;stroke-width:2;stroke-linecap:round;stroke-linejoin:round;stroke-miterlimit:10;}
	.st5{fill:#FFFFFF;stroke:#3DA0DA;stroke-miterlimit:10;}
	.st6{fill:none;}
	.st7{fill:#3EA0D9;}
	.st8{font-family:'Montserrat-Bold';}
	.st9{font-size:10px;}
</style>

<polygon
   id="polygon2515"
   points="163.5,132.1 101,168.1 38.5,132.1 38.5,60.1 101,24.1 163.5,60.1 "
   class="st0" />

<polygon
   style="stroke:#cd1316;stroke-opacity:1"
   id="polygon2517"
   points="161,131.1 100.5,166.1 40,131.1 40,61 100.5,26 161,61 "
   class="st1" />

<g
   style="fill:#cd1316;fill-opacity:1;stroke:none;stroke-opacity:1"
   id="g2559">
	<g
   style="fill:#cd1316;fill-opacity:1;stroke:none;stroke-opacity:1"
   id="g2525">
		<path
   style="fill:#cd1316;fill-opacity:1;stroke:none;stroke-opacity:1"
   id="path2519"
   d="M98.7,55.6c-0.2-0.1-0.3-0.2-0.5-0.2c-0.3,0-0.4,0.2-0.4,0.6v0.2h1.2v0.5h-1.2v2.6h-0.5v-2.6h-0.9v-0.5h0.9    V56c0-0.7,0.4-1,0.9-1c0.3,0,0.5,0.1,0.6,0.2L98.7,55.6z"
   class="st2" />

		<path
   style="fill:#cd1316;fill-opacity:1;stroke:none;stroke-opacity:1"
   id="path2521"
   d="M101.1,56.2c0.9,0,1.5,0.7,1.5,1.6s-0.6,1.6-1.5,1.6c-0.9,0-1.5-0.7-1.5-1.6S100.2,56.2,101.1,56.2z     M101.1,58.8c0.6,0,1-0.5,1-1.1c0-0.6-0.4-1.1-1-1.1c-0.6,0-1,0.5-1,1.1C100.1,58.3,100.5,58.8,101.1,58.8z"
   class="st2" />

		<path
   style="fill:#cd1316;fill-opacity:1;stroke:none;stroke-opacity:1"
   id="path2523"
   d="M105.5,57.2c0-0.3-0.2-0.6-0.6-0.6c-0.5,0-1,0.5-1,1.5v1.1h-0.5v-3h0.5v0.6c0.2-0.4,0.6-0.6,1.1-0.6    c0.6,0,1,0.4,1,1H105.5z"
   class="st2" />

	</g>

	<g
   style="fill:#cd1316;fill-opacity:1;stroke:none;stroke-opacity:1"
   id="g2557">
		<polygon
   style="fill:#cd1316;fill-opacity:1;stroke:none;stroke-opacity:1"
   id="polygon2527"
   points="97.2,46 97.2,46.1 97.2,52.5 97.7,52.5 97.8,52.5 98,52.5 98,46   "
   class="st2" />

		<g
   style="fill:#cd1316;fill-opacity:1;stroke:none;stroke-opacity:1"
   id="g2531">
			<path
   style="fill:#cd1316;fill-opacity:1;stroke:none;stroke-opacity:1"
   id="path2529"
   d="M100.4,53.1c0.1,0,0.1-0.1,0.1-0.1v-7.6c0-0.1-0.1-0.1-0.1-0.1h-2.5c-0.1,0-0.1,0-0.1,0.1v0.2V46     c0,0.1,0,0.1,0.1,0.1h1.7c0.1,0,0.1,0,0.1,0.1v6c0,0.1-0.1,0.1-0.1,0.1h-1.7c-0.1,0-0.1,0-0.1,0v0.2V53c0,0.1,0,0.1,0.1,0.1     H100.4z"
   class="st2" />

		</g>

		<polygon
   style="fill:#cd1316;fill-opacity:1;stroke:none;stroke-opacity:1"
   id="polygon2533"
   points="101.5,46 101.5,46.1 101.5,52.5 102.2,52.5 102.3,52.5 102.3,46   "
   class="st2" />

		<g
   style="fill:#cd1316;fill-opacity:1;stroke:none;stroke-opacity:1"
   id="g2555">
			<path
   style="fill:#cd1316;fill-opacity:1;stroke:none;stroke-opacity:1"
   id="path2535"
   d="M102.2,53.1v-0.8c1.1,0,1.9-1.4,1.9-3.1c0-1.7-0.8-3.1-1.9-3.1v-0.8c1.5,0,2.7,1.7,2.7,3.9     S103.7,53.1,102.2,53.1"
   class="st2" />

			<path
   style="fill:#cd1316;fill-opacity:1;stroke:none;stroke-opacity:1"
   id="path2537"
   d="M93.8,50.6v1.1v0.4c0,0.6,0.4,1,1,1H95h0.5h0.6c0,0,0.1-0.1,0.1-0.1v-0.6c0-0.1-0.1-0.1-0.1-0.1h-0.6h-0.3     H95c-0.3,0-0.3-0.1-0.3-0.4v-0.2v-1v-0.6c0-0.6-0.2-0.8-0.6-0.9c0.3-0.1,0.6-0.3,0.6-0.9v-0.4v-1.1v-0.3c0-0.3,0.1-0.4,0.3-0.4     h0.2h0.3h0.6c0,0,0.1,0,0.1-0.1v-0.6c0-0.1-0.1-0.1-0.1-0.1h-0.5h-0.5h-0.3c-0.6,0-1,0.4-1,1v0.3V48c0,0,0,0.3,0,0.4     c0,0.3-0.4,0.5-0.6,0.5h-0.3c-0.1,0-0.1,0-0.1,0.1v0.6c0,0.1,0,0.1,0.1,0.1h0.3c0.3,0,0.6,0.2,0.6,0.6     C93.8,50.3,93.8,50.6,93.8,50.6"
   class="st2" />

			<path
   style="fill:#cd1316;fill-opacity:1;stroke:none;stroke-opacity:1"
   id="path2539"
   d="M97.8,45.3h-0.3h-0.3c-0.1,0-0.1,0-0.1,0.1v0.2V46v0.1h0.1h0.6H98V46v-0.6v-0.1H97.8z"
   class="st2" />

			<path
   style="fill:#cd1316;fill-opacity:1;stroke:none;stroke-opacity:1"
   id="path2541"
   d="M97.2,52.4v0.3V53c0,0.1,0,0.1,0.1,0.1h0.2h0.4H98V53v-0.6v-0.1h-0.1L97.2,52.4L97.2,52.4L97.2,52.4z"
   class="st2" />

			<path
   style="fill:#cd1316;fill-opacity:1;stroke:none;stroke-opacity:1"
   id="path2543"
   d="M102.2,45.3h-0.3h-0.3c-0.1,0-0.1,0-0.1,0.1v0.2V46v0.1h0.1h0.6h0.1V46v-0.6v-0.1H102.2z"
   class="st2" />

			<path
   style="fill:#cd1316;fill-opacity:1;stroke:none;stroke-opacity:1"
   id="path2545"
   d="M101.5,52.4v0.3V53c0,0.1,0,0.1,0.1,0.1h0.2h0.4h0.1V53v-0.6v-0.1h-0.1L101.5,52.4L101.5,52.4L101.5,52.4z"
   class="st2" />

			<path
   style="fill:#cd1316;fill-opacity:1;stroke:none;stroke-opacity:1"
   id="path2547"
   d="M106.6,50.6v1.1v0.4c0,0.6,0.4,1,1,1h0.2h0.5h0.6c0,0,0.1-0.1,0.1-0.1v-0.6c0-0.1-0.1-0.1-0.1-0.1h-0.6h-0.3     h-0.2c-0.3,0-0.3-0.1-0.3-0.4v-0.2v-1v-0.6c0-0.2-0.1-0.4-0.1-0.5h-1.4c0.4,0.1,0.5,0.2,0.6,0.6     C106.6,50.4,106.6,50.6,106.6,50.6"
   class="st2" />

			<path
   style="fill:#cd1316;fill-opacity:1;stroke:none;stroke-opacity:1"
   id="path2549"
   d="M106.5,48.4c-0.1,0.3-0.3,0.4-0.6,0.5h1.3c0.1-0.2,0.2-0.3,0.2-0.6v-0.4v-1.1v-0.3c0-0.3,0.1-0.4,0.3-0.4     h0.2h0.3h0.6c0,0,0.1,0,0.1-0.1v-0.6c0-0.1-0.1-0.1-0.1-0.1h-0.5h-0.5h-0.3c-0.6,0-1,0.4-1,1v0.3V48     C106.6,48,106.6,48.2,106.5,48.4"
   class="st2" />

			<path
   style="fill:#cd1316;fill-opacity:1;stroke:none;stroke-opacity:1"
   id="path2551"
   d="M106.7,49.3c0.2,0.1,0.4,0.2,0.6,0.4h1.5c0.1,0,0.1,0,0.1-0.1V49c0-0.1-0.1-0.1-0.1-0.1h-1.5     C107.1,49.1,106.9,49.2,106.7,49.3"
   class="st2" />

			<path
   style="fill:#cd1316;fill-opacity:1;stroke:none;stroke-opacity:1"
   id="path2553"
   d="M105.6,48.9C105.6,48.9,105.6,48.9,105.6,48.9l-0.1,0.7c0,0.1,0,0.1,0.1,0.1h0.3h1.4     c-0.1-0.2-0.3-0.3-0.5-0.4c0.2-0.1,0.3-0.2,0.4-0.4H106H105.6z"
   class="st2" />

		</g>

	</g>

</g>

<g
   style="fill:none;fill-opacity:1;stroke:#cd1316;stroke-opacity:1"
   id="g2583">
	<defs
   id="defs2562">
		<polygon
   points="155,126.9 101,158.1 47,126.9 47,64.4 101,33.2 155,64.4   "
   id="XMLID_2_" />

	</defs>

	<clipPath
   id="XMLID_3_">
		<use
   id="use2564"
   style="overflow:visible;"
   xlink:href="#XMLID_2_" />

	</clipPath>

	<path
   transform="matrix(0.97923996,0,0,0.98724227,0.92574155,1.7962944)"
   inkscape:connector-curvature="0"
   style="fill:none;fill-opacity:1;stroke:#cd1316;stroke-opacity:1"
   id="path2567"
   clip-path="url(#XMLID_3_)"
   d="m 98,136.7 c -3.6,0 -4.1,4.1 -8.7,4.1 -5.1,0 -4,-4.1 -8.7,-4.1 -4.5,0 -4.8,4.1 -8.7,4.1 -4.6,0 -4.6,-4.1 -8.7,-4.1 -5,0 -4.8,4.1 -8.7,4.1 -4.2,0 -4,-4.1 -8.7,-4.1"
   class="st3" />

	<path
   style="fill:none;fill-opacity:1;stroke:#cd1316;stroke-opacity:1"
   id="path2569"
   clip-path="url(#XMLID_3_)"
   d="M158,136.7c-3.6,0-4.1,4.1-8.7,4.1c-5.1,0-4-4.1-8.7-4.1c-4.5,0-4.8,4.1-8.7,4.1c-4.6,0-4.6-4.1-8.7-4.1   c-5,0-4.8,4.1-8.7,4.1c-4.2,0-4-4.1-8.7-4.1"
   class="st3" />

	<path
   transform="matrix(0.97878583,0,0,0.97975202,0.971609,2.980503)"
   inkscape:connector-curvature="0"
   style="fill:none;fill-opacity:1;stroke:#cd1316;stroke-opacity:1"
   id="path2571"
   clip-path="url(#XMLID_3_)"
   d="m 98,143.1 c -3.6,0 -4.1,4.1 -8.7,4.1 -5.1,0 -4,-4.1 -8.7,-4.1 -4.5,0 -4.8,4.1 -8.7,4.1 -4.6,0 -4.6,-4.1 -8.7,-4.1 -5,0 -4.8,4.1 -8.7,4.1 -4.2,0 -4,-4.1 -8.7,-4.1"
   class="st3" />

	<path
   style="fill:none;fill-opacity:1;stroke:#cd1316;stroke-opacity:1"
   id="path2573"
   clip-path="url(#XMLID_3_)"
   d="M158,143.1c-3.6,0-4.1,4.1-8.7,4.1c-5.1,0-4-4.1-8.7-4.1c-4.5,0-4.8,4.1-8.7,4.1c-4.6,0-4.6-4.1-8.7-4.1   c-5,0-4.8,4.1-8.7,4.1c-4.2,0-4-4.1-8.7-4.1"
   class="st3" />

	<path
   transform="matrix(0.9783144,0,0,0.95095495,1.0192234,7.5333194)"
   inkscape:connector-curvature="0"
   style="fill:none;fill-opacity:1;stroke:#cd1316;stroke-opacity:1"
   id="path2575"
   clip-path="url(#XMLID_3_)"
   d="m 98,149.5 c -3.6,0 -4.1,4.1 -8.7,4.1 -5.1,0 -4,-4.1 -8.7,-4.1 -4.5,0 -4.8,4.1 -8.7,4.1 -4.6,0 -4.6,-4.1 -8.7,-4.1 -5,0 -4.8,4.1 -8.7,4.1 -4.2,0 -4,-4.1 -8.7,-4.1"
   class="st3" />

	<path
   style="fill:none;fill-opacity:1;stroke:#cd1316;stroke-opacity:1"
   id="path2577"
   clip-path="url(#XMLID_3_)"
   d="M158,149.5c-3.6,0-4.1,4.1-8.7,4.1c-5.1,0-4-4.1-8.7-4.1c-4.5,0-4.8,4.1-8.7,4.1c-4.6,0-4.6-4.1-8.7-4.1   c-5,0-4.8,4.1-8.7,4.1c-4.2,0-4-4.1-8.7-4.1"
   class="st3" />

	<path
   style="fill:none;fill-opacity:1;stroke:#cd1316;stroke-opacity:1"
   id="path2579"
   clip-path="url(#XMLID_3_)"
   d="M113,98c0-1.1-4.4-2.1-10.2-2.3l0-1.3c5.3-0.2,9.4-1,9.4-2.1c0-1.1-4.1-1.9-9.5-2.1l0-1.2   c4.5-0.1,7.9-0.9,7.9-1.8c0-0.9-3.5-1.6-8-1.8l-1-22.8h-1.3l-0.8,22.9c-4.5,0.1-7.9,0.9-7.9,1.8c0,0.9,3.4,1.6,7.8,1.8l0,1.2   c-5.4,0.2-9.5,1-9.5,2.1c0,1.1,4,1.9,9.3,2.1l0,1.3C93.4,95.9,89,96.9,89,98c0,0.2,0.1,0.3,0.3,0.5l9.3,14.4l-2.1,52.2h9.1l-2-52.4   l9.2-14.2C112.9,98.4,113,98.2,113,98L113,98z"
   class="st4" />

	<use
   id="use2581"
   style="overflow:visible;fill:none;stroke:#cd1316;stroke-miterlimit:10;fill-opacity:1;stroke-opacity:1"
   xlink:href="#XMLID_2_" />

</g>

<g
   style="stroke:#cd1316;stroke-opacity:1"
   id="g2589">
	<polyline
   style="stroke:#cd1316;stroke-opacity:1"
   id="polyline2585"
   points="68.8,117.7 73.2,112.7 57.4,112.7 62.1,118.8 57.6,124.7 69.2,124.7  "
   class="st5" />

	<line
   style="stroke:#cd1316;stroke-opacity:1"
   id="line2587"
   y2="117.2"
   x2="73.7"
   y1="112.2"
   x1="73.7"
   class="st5" />

</g>

<g
   style="stroke:#cd1316;stroke-opacity:1"
   id="g2595">
	<polyline
   style="stroke:#cd1316;stroke-opacity:1"
   id="polyline2591"
   points="132.2,117.7 127.9,112.7 143.6,112.7 138.9,118.8 143.4,124.7 131.9,124.7  "
   class="st5" />

	<line
   style="stroke:#cd1316;stroke-opacity:1"
   id="line2593"
   y2="117.2"
   x2="127.4"
   y1="112.2"
   x1="127.4"
   class="st5" />

</g>

<g
   style="stroke:#cd1316;stroke-opacity:1"
   id="g2599">
	<rect
   style="stroke:#cd1316;stroke-opacity:1"
   id="rect2597"
   height="15"
   width="63"
   class="st5"
   y="117.5"
   x="69" />

</g>

<rect
   id="rect2601"
   height="11"
   width="62.4"
   class="st6"
   y="120.2"
   x="69.5" />

<text
   style="stroke:none;stroke-opacity:1;fill:#cd1316;fill-opacity:1;"
   id="text2603"
   class="st7 st8 st9"
   transform="matrix(1 0 0 1 73.2738 128.6618)">Düsseldorf</text>

<g
   style="stroke:none;stroke-opacity:1;fill:#cd1316;fill-opacity:1"
   id="g2607">
	<path
   style="stroke:none;stroke-opacity:1;fill:#cd1316;fill-opacity:1"
   id="path2605"
   d="M72.8,108.8c-1.4-0.5-2.5-1-3.4-1.8s-1.7-1.6-2.2-2.5s-0.9-2-1.2-3.1s-0.4-2.3-0.4-3.5v-4.8   c0-0.8-0.1-1.6-0.2-2.3s-0.4-1.3-0.7-1.8s-0.7-0.9-1.3-1.1s-1.1-0.4-1.8-0.4v-3.4c1.4,0,2.4-0.5,3.1-1.5s0.9-2.4,0.9-4.1v-4.9   c0-1.2,0.1-2.4,0.4-3.5s0.6-2.1,1.2-3.1s1.3-1.8,2.2-2.5s2.1-1.3,3.4-1.8l0.8,2.7c-0.8,0.3-1.4,0.7-1.9,1.2s-0.9,1.2-1.2,1.9   S70.1,70.1,70,71s-0.2,1.8-0.2,2.7v4.9c0,1.6-0.3,3-0.8,4.3s-1.4,2.3-2.6,3c1.2,0.7,2.1,1.7,2.6,3s0.8,2.7,0.8,4.3v4.8   c0,1,0.1,1.9,0.2,2.7c0.1,0.9,0.3,1.6,0.6,2.4s0.7,1.3,1.2,1.9s1.1,0.9,1.9,1.2L72.8,108.8z"
   class="st7" />

</g>

<g
   style="fill:#cd1316;fill-opacity:1"
   id="g2611">
	<path
   style="fill:#cd1316;fill-opacity:1"
   id="path2609"
   d="M127.4,106.1c0.8-0.3,1.4-0.7,1.9-1.2s0.9-1.2,1.2-1.9s0.5-1.5,0.6-2.4c0.1-0.9,0.2-1.8,0.2-2.7v-4.8   c0-1.6,0.3-3.1,0.9-4.3s1.5-2.2,2.8-2.9c-1.3-0.7-2.2-1.6-2.8-2.9s-0.9-2.7-0.9-4.3v-4.9c0-1-0.1-1.9-0.2-2.7s-0.3-1.7-0.6-2.4   s-0.7-1.3-1.2-1.9s-1.1-0.9-1.9-1.2l0.8-2.7c1.4,0.5,2.5,1,3.4,1.8s1.6,1.6,2.2,2.5s0.9,2,1.2,3.1s0.4,2.3,0.4,3.5v4.9   c0,0.8,0.1,1.6,0.2,2.3s0.4,1.3,0.7,1.8s0.7,0.9,1.3,1.1s1.1,0.4,1.8,0.4v3.4c-0.7,0-1.3,0.1-1.8,0.4s-0.9,0.6-1.3,1.1   s-0.6,1.1-0.7,1.8s-0.2,1.5-0.2,2.3v4.8c0,1.2-0.1,2.4-0.4,3.5s-0.6,2.2-1.2,3.1s-1.3,1.8-2.2,2.5s-2.1,1.3-3.4,1.8L127.4,106.1z"
   class="st7" />

</g>

</svg>
